# Blender 5.1.1
# www.blender.org
mtllib sausage_body.mtl
o sausage_body
v 0.011198 0.037152 -0.064178
v 0.010373 0.037178 -0.064178
v 0.012019 0.037071 -0.064178
v 0.010373 0.024434 -0.064178
v 0.011198 0.037152 -0.049564
v 0.010373 0.037178 -0.049564
v 0.012019 0.037071 -0.049564
v 0.010373 0.024434 -0.049564
v 0.018388 0.014526 -0.049564
v 0.019012 0.015065 -0.049564
v 0.023035 0.022993 -0.049564
v 0.023102 0.023815 -0.049564
v 0.023115 0.024640 -0.049564
v 0.022387 0.028685 -0.049564
v 0.022087 0.029454 -0.049564
v 0.017040 0.013573 -0.049564
v 0.017729 0.014028 -0.049564
v 0.012427 0.011857 -0.049564
v 0.013237 0.012016 -0.049564
v 0.020659 0.016910 -0.049564
v 0.021124 0.017591 -0.049564
v 0.021545 0.018302 -0.049564
v 0.015955 0.035890 -0.049564
v 0.015202 0.036228 -0.049564
v 0.022915 0.022176 -0.049564
v 0.010785 0.011697 -0.049564
v 0.011609 0.011750 -0.049564
v 0.005928 0.012490 -0.049564
v 0.006710 0.012227 -0.049564
v 0.015581 0.012803 -0.049564
v 0.016323 0.013164 -0.049564
v 0.020897 0.031621 -0.049564
v 0.020410 0.032287 -0.049564
v 0.020150 0.016260 -0.049564
v 0.004422 0.013164 -0.049564
v 0.005164 0.012803 -0.049564
v 0.000595 0.016260 -0.049564
v 0.001145 0.015644 -0.049564
v 0.009136 0.011750 -0.049564
v 0.009960 0.011697 -0.049564
v 0.023075 0.025465 -0.049564
v 0.022982 0.026285 -0.049564
v 0.014818 0.012490 -0.049564
v -0.000379 0.017591 -0.049564
v 0.000087 0.016910 -0.049564
v -0.002170 0.022176 -0.049564
v -0.001997 0.021369 -0.049564
v 0.003016 0.014028 -0.049564
v 0.003705 0.013573 -0.049564
v 0.021918 0.019038 -0.049564
v 0.022243 0.019796 -0.049564
v 0.008318 0.011857 -0.049564
v 0.014428 0.036516 -0.049564
v 0.013638 0.036753 -0.049564
v -0.002356 0.023815 -0.049564
v -0.002290 0.022993 -0.049564
v -0.001642 0.028685 -0.049564
v -0.001892 0.027898 -0.049564
v -0.001173 0.019038 -0.049564
v -0.000799 0.018302 -0.049564
v 0.002358 0.014526 -0.049564
v 0.019880 0.032921 -0.049564
v 0.019311 0.033518 -0.049564
v 0.012834 0.036938 -0.049564
v -0.000992 0.030201 -0.049564
v -0.001341 0.029454 -0.049564
v 0.002041 0.034078 -0.049564
v 0.001434 0.033518 -0.049564
v -0.002330 0.025465 -0.049564
v -0.002370 0.024640 -0.049564
v -0.001498 0.019796 -0.049564
v 0.022836 0.027097 -0.049564
v 0.022637 0.027898 -0.049564
v 0.018704 0.034078 -0.049564
v 0.003357 0.035073 -0.049564
v 0.002683 0.034597 -0.049564
v 0.007912 0.036938 -0.049564
v 0.007108 0.036753 -0.049564
v -0.000151 0.031621 -0.049564
v -0.000595 0.030925 -0.049564
v -0.002236 0.026285 -0.049564
v 0.022518 0.020574 -0.049564
v 0.022743 0.021369 -0.049564
v 0.009548 0.037152 -0.049564
v 0.008726 0.037071 -0.049564
v 0.004790 0.035890 -0.049564
v 0.004060 0.035505 -0.049564
v 0.000336 0.032287 -0.049564
v 0.019600 0.015644 -0.049564
v 0.005543 0.036228 -0.049564
v 0.014035 0.012227 -0.049564
v 0.007508 0.012016 -0.049564
v 0.001733 0.015065 -0.049564
v -0.001773 0.020574 -0.049564
v -0.002090 0.027097 -0.049564
v 0.000865 0.032921 -0.049564
v 0.006317 0.036516 -0.049564
v 0.016685 0.035505 -0.049564
v 0.021340 0.030925 -0.049564
v 0.018062 0.034597 -0.049564
v 0.017389 0.035073 -0.049564
v 0.021737 0.030201 -0.049564
v 0.021737 0.030201 -0.064178
v 0.021340 0.030925 -0.064178
v 0.022087 0.029454 -0.064178
v 0.022387 0.028685 -0.064178
v 0.022637 0.027898 -0.064178
v 0.022836 0.027097 -0.064178
v 0.022982 0.026285 -0.064178
v 0.023075 0.025465 -0.064178
v 0.023115 0.024640 -0.064178
v 0.023102 0.023815 -0.064178
v 0.023035 0.022993 -0.064178
v 0.022915 0.022176 -0.064178
v 0.022743 0.021369 -0.064178
v 0.022518 0.020574 -0.064178
v 0.022243 0.019796 -0.064178
v 0.021918 0.019038 -0.064178
v 0.021545 0.018302 -0.064178
v 0.021124 0.017591 -0.064178
v 0.020659 0.016910 -0.064178
v 0.020150 0.016260 -0.064178
v 0.019600 0.015644 -0.064178
v 0.019012 0.015065 -0.064178
v 0.018388 0.014526 -0.064178
v 0.017729 0.014028 -0.064178
v 0.017040 0.013573 -0.064178
v 0.016323 0.013164 -0.064178
v 0.015581 0.012803 -0.064178
v 0.014818 0.012490 -0.064178
v 0.014035 0.012227 -0.064178
v 0.013237 0.012016 -0.064178
v 0.012427 0.011857 -0.064178
v 0.011609 0.011750 -0.064178
v 0.010785 0.011697 -0.064178
v 0.009960 0.011697 -0.064178
v 0.009136 0.011750 -0.064178
v 0.008318 0.011857 -0.064178
v 0.007508 0.012016 -0.064178
v 0.006710 0.012227 -0.064178
v 0.005928 0.012490 -0.064178
v 0.005164 0.012803 -0.064178
v 0.004422 0.013164 -0.064178
v 0.003705 0.013573 -0.064178
v 0.003016 0.014028 -0.064178
v 0.002358 0.014526 -0.064178
v 0.001733 0.015065 -0.064178
v 0.001145 0.015644 -0.064178
v 0.000595 0.016260 -0.064178
v 0.000087 0.016910 -0.064178
v -0.000379 0.017591 -0.064178
v -0.000799 0.018302 -0.064178
v -0.001173 0.019038 -0.064178
v -0.001498 0.019796 -0.064178
v -0.001773 0.020574 -0.064178
v -0.001997 0.021369 -0.064178
v -0.002170 0.022176 -0.064178
v -0.002290 0.022993 -0.064178
v -0.002356 0.023815 -0.064178
v -0.002370 0.024640 -0.064178
v -0.002330 0.025465 -0.064178
v -0.002236 0.026285 -0.064178
v -0.002090 0.027097 -0.064178
v -0.001892 0.027898 -0.064178
v -0.001642 0.028685 -0.064178
v -0.001341 0.029454 -0.064178
v -0.000992 0.030201 -0.064178
v -0.000595 0.030925 -0.064178
v -0.000151 0.031621 -0.064178
v 0.000336 0.032287 -0.064178
v 0.000865 0.032921 -0.064178
v 0.001434 0.033518 -0.064178
v 0.002041 0.034078 -0.064178
v 0.002683 0.034597 -0.064178
v 0.003357 0.035073 -0.064178
v 0.004060 0.035505 -0.064178
v 0.004790 0.035890 -0.064178
v 0.005543 0.036228 -0.064178
v 0.006317 0.036516 -0.064178
v 0.007108 0.036753 -0.064178
v 0.007912 0.036938 -0.064178
v 0.008726 0.037071 -0.064178
v 0.009548 0.037152 -0.064178
v 0.020897 0.031621 -0.064178
v 0.020410 0.032287 -0.064178
v 0.019880 0.032921 -0.064178
v 0.019311 0.033518 -0.064178
v 0.018704 0.034078 -0.064178
v 0.018062 0.034597 -0.064178
v 0.017389 0.035073 -0.064178
v 0.016685 0.035505 -0.064178
v 0.015955 0.035890 -0.064178
v 0.015202 0.036228 -0.064178
v 0.014428 0.036516 -0.064178
v 0.013638 0.036753 -0.064178
v 0.012834 0.036938 -0.064178
vn 0.0324 0.9995 -0.0000
vn -0.0000 -0.0000 -1.0000
vn 0.0970 0.9953 -0.0000
vn -0.0000 -0.0000 1.0000
vn 0.8768 0.4808 -0.0000
vn 0.8766 0.4812 -0.0000
vn 0.9059 0.4235 -0.0000
vn 0.9315 0.3637 -0.0000
vn 0.9315 0.3638 -0.0000
vn 0.9314 0.3639 -0.0000
vn 0.9531 0.3028 -0.0000
vn 0.9707 0.2405 -0.0000
vn 0.9706 0.2406 -0.0000
vn 0.9842 0.1770 -0.0000
vn 0.9936 0.1130 -0.0000
vn 0.9936 0.1132 -0.0000
vn 0.9988 0.0484 -0.0000
vn 0.9999 -0.0162 -0.0000
vn 0.9999 -0.0161 -0.0000
vn 0.9967 -0.0809 -0.0000
vn 0.9967 -0.0812 -0.0000
vn 0.9894 -0.1453 -0.0000
vn 0.9894 -0.1450 -0.0000
vn 0.9779 -0.2089 -0.0000
vn 0.9780 -0.2088 -0.0000
vn 0.9623 -0.2719 -0.0000
vn 0.9427 -0.3336 -0.0000
vn 0.9427 -0.3337 -0.0000
vn 0.9192 -0.3938 -0.0000
vn 0.9191 -0.3941 -0.0000
vn 0.8918 -0.4524 -0.0000
vn 0.8918 -0.4525 -0.0000
vn 0.8605 -0.5095 -0.0000
vn 0.8258 -0.5639 -0.0000
vn 0.7876 -0.6162 -0.0000
vn 0.7875 -0.6163 -0.0000
vn 0.7873 -0.6165 -0.0000
vn 0.7459 -0.6660 -0.0000
vn 0.7016 -0.7125 -0.0000
vn 0.6537 -0.7568 -0.0000
vn 0.6033 -0.7975 -0.0000
vn 0.5507 -0.8347 -0.0000
vn 0.5508 -0.8346 -0.0000
vn 0.4952 -0.8688 -0.0000
vn 0.4955 -0.8686 -0.0000
vn 0.4380 -0.8990 -0.0000
vn 0.4381 -0.8989 -0.0000
vn 0.3790 -0.9254 -0.0000
vn 0.3791 -0.9254 -0.0000
vn 0.3184 -0.9480 -0.0000
vn 0.3181 -0.9481 -0.0000
vn 0.2563 -0.9666 -0.0000
vn 0.2562 -0.9666 -0.0000
vn 0.1931 -0.9812 -0.0000
vn 0.1929 -0.9812 -0.0000
vn 0.1930 -0.9812 -0.0000
vn 0.1292 -0.9916 -0.0000
vn 0.1294 -0.9916 -0.0000
vn 0.0647 -0.9979 -0.0000
vn 0.0645 -0.9979 -0.0000
vn -0.0000 -1.0000 -0.0000
vn -0.0647 -0.9979 -0.0000
vn -0.1291 -0.9916 -0.0000
vn -0.1292 -0.9916 -0.0000
vn -0.1931 -0.9812 -0.0000
vn -0.1929 -0.9812 -0.0000
vn -0.1930 -0.9812 -0.0000
vn -0.2563 -0.9666 -0.0000
vn -0.2562 -0.9666 -0.0000
vn -0.3182 -0.9480 -0.0000
vn -0.3791 -0.9254 -0.0000
vn -0.4380 -0.8990 -0.0000
vn -0.4952 -0.8688 -0.0000
vn -0.4955 -0.8686 -0.0000
vn -0.5507 -0.8347 -0.0000
vn -0.6035 -0.7974 -0.0000
vn -0.6537 -0.7567 -0.0000
vn -0.7016 -0.7125 -0.0000
vn -0.7014 -0.7128 -0.0000
vn -0.7459 -0.6660 -0.0000
vn -0.7877 -0.6160 -0.0000
vn -0.7876 -0.6162 -0.0000
vn -0.8258 -0.5640 -0.0000
vn -0.8258 -0.5639 -0.0000
vn -0.8606 -0.5094 -0.0000
vn -0.8607 -0.5092 -0.0000
vn -0.8606 -0.5093 -0.0000
vn -0.8917 -0.4526 -0.0000
vn -0.8915 -0.4530 -0.0000
vn -0.9192 -0.3938 -0.0000
vn -0.9191 -0.3941 -0.0000
vn -0.9428 -0.3333 -0.0000
vn -0.9624 -0.2718 -0.0000
vn -0.9624 -0.2717 -0.0000
vn -0.9779 -0.2090 -0.0000
vn -0.9779 -0.2091 -0.0000
vn -0.9779 -0.2093 -0.0000
vn -0.9894 -0.1453 -0.0000
vn -0.9967 -0.0809 -0.0000
vn -0.9999 -0.0162 -0.0000
vn -0.9988 0.0484 -0.0000
vn -0.9936 0.1130 -0.0000
vn -0.9936 0.1131 -0.0000
vn -0.9842 0.1770 -0.0000
vn -0.9707 0.2404 -0.0000
vn -0.9707 0.2403 -0.0000
vn -0.9531 0.3028 -0.0000
vn -0.9314 0.3640 -0.0000
vn -0.9060 0.4233 -0.0000
vn -0.8767 0.4811 -0.0000
vn -0.8766 0.4812 -0.0000
vn -0.8437 0.5369 -0.0000
vn -0.8072 0.5903 -0.0000
vn -0.7673 0.6413 -0.0000
vn -0.7672 0.6414 -0.0000
vn -0.7241 0.6897 -0.0000
vn -0.7239 0.6899 -0.0000
vn -0.6781 0.7350 -0.0000
vn -0.6778 0.7352 -0.0000
vn -0.6290 0.7774 -0.0000
vn -0.6289 0.7775 -0.0000
vn -0.6287 0.7777 -0.0000
vn -0.5769 0.8168 -0.0000
vn -0.5773 0.8166 -0.0000
vn -0.5236 0.8520 -0.0000
vn -0.4668 0.8844 -0.0000
vn -0.4665 0.8845 -0.0000
vn -0.4087 0.9127 -0.0000
vn -0.3487 0.9372 -0.0000
vn -0.2873 0.9578 -0.0000
vn -0.2875 0.9578 -0.0000
vn -0.2242 0.9745 -0.0000
vn -0.2247 0.9744 -0.0000
vn -0.1613 0.9869 -0.0000
vn -0.0970 0.9953 -0.0000
vn -0.0324 0.9995 -0.0000
vn 0.8436 0.5370 -0.0000
vn 0.8072 0.5903 -0.0000
vn 0.7672 0.6414 -0.0000
vn 0.7241 0.6897 -0.0000
vn 0.6778 0.7352 -0.0000
vn 0.6781 0.7350 -0.0000
vn 0.6777 0.7353 -0.0000
vn 0.6289 0.7775 -0.0000
vn 0.6290 0.7774 -0.0000
vn 0.5774 0.8164 -0.0000
vn 0.5230 0.8523 -0.0000
vn 0.4668 0.8844 -0.0000
vn 0.4665 0.8845 -0.0000
vn 0.4669 0.8843 -0.0000
vn 0.4087 0.9127 -0.0000
vn 0.3487 0.9372 -0.0000
vn 0.2873 0.9578 -0.0000
vn 0.2247 0.9744 -0.0000
vn 0.1611 0.9869 -0.0000
vn 0.9059 0.4234 -0.0000
vn 0.8606 -0.5092 -0.0000
vn 0.6034 -0.7975 -0.0000
vn 0.1932 -0.9812 -0.0000
vn -0.1294 -0.9916 -0.0000
vn -0.3181 -0.9480 -0.0000
vn -0.5506 -0.8348 -0.0000
vn -0.6536 -0.7568 -0.0000
vn -0.7879 -0.6158 -0.0000
vn -0.9999 -0.0163 -0.0000
vn -0.9706 0.2405 -0.0000
vn -0.8436 0.5369 -0.0000
vn -0.6777 0.7353 -0.0000
vn -0.2870 0.9579 -0.0000
s 1
usemtl Material.001
f 2//1 6//1 5//1
f 2//2 1//2 4//2
f 3//3 1//3 5//3
f 1//2 3//2 4//2
f 6//4 8//4 5//4
f 5//4 8//4 7//4
f 9//4 8//4 17//4
f 10//4 8//4 9//4
f 89//4 8//4 10//4
f 11//4 8//4 25//4
f 12//4 8//4 11//4
f 13//4 8//4 12//4
f 41//4 8//4 13//4
f 14//4 8//4 73//4
f 15//4 8//4 14//4
f 102//4 8//4 15//4
f 16//4 8//4 31//4
f 17//4 8//4 16//4
f 18//4 8//4 27//4
f 19//4 8//4 18//4
f 91//4 8//4 19//4
f 20//4 8//4 34//4
f 21//4 8//4 20//4
f 22//4 8//4 21//4
f 50//4 8//4 22//4
f 23//4 8//4 98//4
f 24//4 8//4 23//4
f 53//4 8//4 24//4
f 25//4 8//4 83//4
f 26//4 8//4 40//4
f 27//4 8//4 26//4
f 28//4 8//4 36//4
f 29//4 8//4 28//4
f 92//4 8//4 29//4
f 30//4 8//4 43//4
f 31//4 8//4 30//4
f 32//4 8//4 99//4
f 33//4 8//4 32//4
f 62//4 8//4 33//4
f 34//4 8//4 89//4
f 35//4 8//4 49//4
f 36//4 8//4 35//4
f 37//4 8//4 45//4
f 38//4 8//4 37//4
f 93//4 8//4 38//4
f 39//4 8//4 52//4
f 40//4 8//4 39//4
f 42//4 8//4 41//4
f 72//4 8//4 42//4
f 43//4 8//4 91//4
f 44//4 8//4 60//4
f 45//4 8//4 44//4
f 46//4 8//4 56//4
f 47//4 8//4 46//4
f 94//4 8//4 47//4
f 48//4 8//4 61//4
f 49//4 8//4 48//4
f 51//4 8//4 50//4
f 82//4 8//4 51//4
f 52//4 8//4 92//4
f 54//4 8//4 53//4
f 64//4 8//4 54//4
f 55//4 8//4 70//4
f 56//4 8//4 55//4
f 57//4 8//4 66//4
f 58//4 8//4 57//4
f 95//4 8//4 58//4
f 59//4 8//4 71//4
f 60//4 8//4 59//4
f 61//4 8//4 93//4
f 63//4 8//4 62//4
f 74//4 8//4 63//4
f 7//4 8//4 64//4
f 65//4 8//4 80//4
f 66//4 8//4 65//4
f 67//4 8//4 76//4
f 68//4 8//4 67//4
f 96//4 8//4 68//4
f 69//4 8//4 81//4
f 70//4 8//4 69//4
f 71//4 8//4 94//4
f 73//4 8//4 72//4
f 100//4 8//4 74//4
f 75//4 8//4 87//4
f 76//4 8//4 75//4
f 77//4 8//4 85//4
f 78//4 8//4 77//4
f 97//4 8//4 78//4
f 79//4 8//4 88//4
f 80//4 8//4 79//4
f 81//4 8//4 95//4
f 83//4 8//4 82//4
f 84//4 8//4 6//4
f 85//4 8//4 84//4
f 86//4 8//4 90//4
f 87//4 8//4 86//4
f 88//4 8//4 96//4
f 90//4 8//4 97//4
f 98//4 8//4 101//4
f 99//4 8//4 102//4
f 101//4 8//4 100//4
f 103//5 104//6 99//5
f 105//7 103//7 102//7
f 104//2 103//2 4//2
f 103//2 105//2 4//2
f 106//8 105//10 15//9
f 105//2 106//2 4//2
f 107//11 106//11 14//11
f 106//2 107//2 4//2
f 108//12 107//13 73//13
f 107//2 108//2 4//2
f 109//14 108//14 72//14
f 108//2 109//2 4//2
f 110//15 109//15 42//16
f 109//2 110//2 4//2
f 111//17 110//17 41//17
f 110//2 111//2 4//2
f 112//18 111//18 13//19
f 111//2 112//2 4//2
f 113//20 112//21 12//20
f 112//2 113//2 4//2
f 114//22 113//23 11//23
f 113//2 114//2 4//2
f 115//24 114//25 25//24
f 114//2 115//2 4//2
f 116//26 115//26 83//26
f 115//2 116//2 4//2
f 116//27 82//27 51//28
f 116//2 117//2 4//2
f 118//29 117//29 51//30
f 117//2 118//2 4//2
f 119//31 118//32 50//31
f 118//2 119//2 4//2
f 120//33 119//33 22//33
f 119//2 120//2 4//2
f 121//34 120//34 21//34
f 120//2 121//2 4//2
f 122//35 121//37 20//36
f 121//2 122//2 4//2
f 123//38 122//38 34//38
f 122//2 123//2 4//2
f 124//39 123//39 89//39
f 123//2 124//2 4//2
f 125//40 124//40 10//40
f 124//2 125//2 4//2
f 126//41 125//41 9//41
f 125//2 126//2 4//2
f 127//42 126//43 17//42
f 126//2 127//2 4//2
f 128//44 127//45 16//44
f 127//2 128//2 4//2
f 129//46 128//47 31//47
f 128//2 129//2 4//2
f 130//48 129//48 30//49
f 129//2 130//2 4//2
f 131//50 130//51 43//50
f 130//2 131//2 4//2
f 132//52 131//53 91//53
f 131//2 132//2 4//2
f 133//54 132//56 19//55
f 132//2 133//2 4//2
f 134//57 133//58 18//58
f 133//2 134//2 4//2
f 135//59 134//59 27//60
f 134//2 135//2 4//2
f 136//61 135//61 26//61
f 135//2 136//2 4//2
f 137//62 136//62 40//62
f 136//2 137//2 4//2
f 138//63 137//63 39//64
f 137//2 138//2 4//2
f 139//65 138//67 52//66
f 138//2 139//2 4//2
f 140//68 139//68 92//69
f 139//2 140//2 4//2
f 141//70 140//70 29//70
f 140//2 141//2 4//2
f 142//71 141//71 28//71
f 141//2 142//2 4//2
f 143//72 142//72 36//72
f 142//2 143//2 4//2
f 144//73 143//74 35//74
f 143//2 144//2 4//2
f 145//75 144//75 49//75
f 144//2 145//2 4//2
f 146//76 145//76 48//76
f 145//2 146//2 4//2
f 147//77 146//77 61//77
f 146//2 147//2 4//2
f 148//78 147//79 93//78
f 147//2 148//2 4//2
f 149//80 148//80 38//80
f 148//2 149//2 4//2
f 150//81 149//81 37//82
f 149//2 150//2 4//2
f 151//83 150//83 45//84
f 150//2 151//2 4//2
f 152//85 151//87 44//86
f 151//2 152//2 4//2
f 153//88 152//89 60//88
f 152//2 153//2 4//2
f 154//90 153//91 59//90
f 153//2 154//2 4//2
f 155//92 154//92 71//92
f 154//2 155//2 4//2
f 156//93 155//94 94//94
f 155//2 156//2 4//2
f 157//95 156//97 47//96
f 156//2 157//2 4//2
f 158//98 157//98 46//98
f 157//2 158//2 4//2
f 159//99 158//99 56//99
f 158//2 159//2 4//2
f 160//100 159//100 55//100
f 159//2 160//2 4//2
f 161//101 160//101 70//101
f 160//2 161//2 4//2
f 162//102 161//102 69//103
f 161//2 162//2 4//2
f 163//104 162//104 81//104
f 162//2 163//2 4//2
f 164//105 163//106 95//105
f 163//2 164//2 4//2
f 165//107 164//107 58//107
f 164//2 165//2 4//2
f 166//108 165//108 57//108
f 165//2 166//2 4//2
f 167//109 166//109 66//109
f 166//2 167//2 4//2
f 168//110 167//110 65//111
f 167//2 168//2 4//2
f 169//112 168//112 80//112
f 168//2 169//2 4//2
f 170//113 169//113 79//113
f 169//2 170//2 4//2
f 171//114 170//115 88//115
f 170//2 171//2 4//2
f 172//116 171//116 96//117
f 171//2 172//2 4//2
f 173//118 172//119 68//119
f 172//2 173//2 4//2
f 174//120 173//122 67//121
f 173//2 174//2 4//2
f 175//123 174//123 76//124
f 174//2 175//2 4//2
f 176//125 175//125 75//125
f 175//2 176//2 4//2
f 177//126 176//127 87//127
f 176//2 177//2 4//2
f 178//128 177//128 86//128
f 177//2 178//2 4//2
f 179//129 178//129 90//129
f 178//2 179//2 4//2
f 180//130 179//130 97//131
f 179//2 180//2 4//2
f 181//132 180//132 78//133
f 180//2 181//2 4//2
f 182//134 181//134 77//134
f 181//2 182//2 4//2
f 183//135 182//135 85//135
f 182//2 183//2 4//2
f 2//136 183//136 84//136
f 183//2 2//2 4//2
f 184//137 32//137 99//137
f 184//2 104//2 4//2
f 184//138 185//138 33//138
f 185//2 184//2 4//2
f 185//139 186//139 62//139
f 186//2 185//2 4//2
f 186//140 187//140 63//140
f 187//2 186//2 4//2
f 187//141 188//143 74//142
f 188//2 187//2 4//2
f 188//144 189//144 100//145
f 189//2 188//2 4//2
f 189//146 190//146 101//146
f 190//2 189//2 4//2
f 190//147 191//147 98//147
f 191//2 190//2 4//2
f 191//148 192//150 23//149
f 192//2 191//2 4//2
f 192//151 193//151 24//151
f 193//2 192//2 4//2
f 193//152 194//152 53//152
f 194//2 193//2 4//2
f 194//153 195//153 54//153
f 195//2 194//2 4//2
f 195//154 196//154 64//154
f 196//2 195//2 4//2
f 3//155 7//155 64//155
f 3//2 196//2 4//2
f 2//1 5//1 1//1
f 3//3 5//3 7//3
f 103//5 99//5 102//5
f 105//7 102//7 15//156
f 106//8 15//9 14//9
f 107//11 14//11 73//11
f 108//12 73//13 72//13
f 109//14 72//14 42//14
f 110//15 42//16 41//16
f 111//17 41//17 13//17
f 112//18 13//19 12//19
f 113//20 12//20 11//21
f 114//22 11//23 25//22
f 115//24 25//24 83//24
f 116//26 83//26 82//26
f 116//27 51//28 117//28
f 118//29 51//30 50//30
f 119//31 50//31 22//32
f 120//33 22//33 21//157
f 121//34 21//34 20//34
f 122//35 20//36 34//37
f 123//38 34//38 89//38
f 124//39 89//39 10//39
f 125//40 10//40 9//40
f 126//41 9//41 17//158
f 127//42 17//42 16//42
f 128//44 16//44 31//45
f 129//46 31//47 30//47
f 130//48 30//49 43//49
f 131//50 43//50 91//50
f 132//52 91//53 19//53
f 133//54 19//55 18//159
f 134//57 18//58 27//57
f 135//59 27//60 26//59
f 136//61 26//61 40//61
f 137//62 40//62 39//62
f 138//63 39//64 52//160
f 139//65 52//66 92//66
f 140//68 92//69 29//69
f 141//70 29//70 28//161
f 142//71 28//71 36//71
f 143//72 36//72 35//72
f 144//73 35//74 49//74
f 145//75 49//75 48//162
f 146//76 48//76 61//76
f 147//77 61//77 93//163
f 148//78 93//78 38//79
f 149//80 38//80 37//80
f 150//81 37//82 45//164
f 151//83 45//84 44//84
f 152//85 44//86 60//87
f 153//88 60//88 59//88
f 154//90 59//90 71//90
f 155//92 71//92 94//92
f 156//93 94//94 47//94
f 157//95 47//96 46//95
f 158//98 46//98 56//98
f 159//99 56//99 55//99
f 160//100 55//100 70//165
f 161//101 70//101 69//101
f 162//102 69//103 81//103
f 163//104 81//104 95//104
f 164//105 95//105 58//166
f 165//107 58//107 57//107
f 166//108 57//108 66//108
f 167//109 66//109 65//109
f 168//110 65//111 80//111
f 169//112 80//112 79//167
f 170//113 79//113 88//113
f 171//114 88//115 96//115
f 172//116 96//117 68//117
f 173//118 68//119 67//168
f 174//120 67//121 76//121
f 175//123 76//124 75//124
f 176//125 75//125 87//125
f 177//126 87//127 86//127
f 178//128 86//128 90//128
f 179//129 90//129 97//129
f 180//130 97//131 78//169
f 181//132 78//133 77//133
f 182//134 77//134 85//134
f 183//135 85//135 84//135
f 2//136 84//136 6//136
f 184//137 99//137 104//137
f 184//138 33//138 32//138
f 185//139 62//139 33//139
f 186//140 63//140 62//140
f 187//141 74//142 63//142
f 188//144 100//145 74//145
f 189//146 101//146 100//146
f 190//147 98//147 101//147
f 191//148 23//149 98//149
f 192//151 24//151 23//151
f 193//152 53//152 24//152
f 194//153 54//153 53//153
f 195//154 64//154 54//154
f 3//155 64//155 196//155
